<?xml version='1.0' encoding='utf-8'?>
<svg xmlns="http://www.w3.org/2000/svg" version="1.1" width="600px" height="976px" viewBox="0 0 600 976"> <g id="layer1"> <g style="fill:rgb(0,0,0); fill-opacity:1.0; stroke-linejoin: miter"> <path d="M457.45758,467.9027L457.3883,467.92294L457.45752,467.9027 Z M87.68314,646.7785Q87.63672,646.7797,87.59046,646.7808L87.589645,646.7808Q87.63587,646.7797,87.68227,646.7785 Z M89.92902,392.49503Q88.182,392.49503,84.876785,394.9842L80.64725,398.3815Q65.99526,411.2163,64.12876,412.50827Q58.76123,416.7044,56.492725,417.24222Q55.917908,417.46088,55.427494,417.46088Q54.03784,417.46088,53.325874,415.70523Q52.584564,414.0592,52.24912,410.36673L51.90663,404.9922Q51.893665,404.37106,52.23531,403.8331Q51.782154,403.5526,51.24975,403.5526Q50.919983,403.5526,50.55981,403.66022Q51.056736,404.40204,51.033253,404.7497Q49.921406,410.51648,50.10139,414.00446Q50.186718,416.7247,51.33674,418.64813Q53.025814,421.1373,56.09613,421.1373Q58.18927,421.1373,60.924355,419.98044Q65.90429,418.19888,83.82918,405.1507L83.83002,405.1507Q71.9779,429.61124,84.68975,445.3192Q85.14868,445.85095,85.6391,446.37436L85.638245,446.37436Q90.52125,453.6815,96.814674,459.1785L96.813705,459.1785Q101.283775,464.1541,107.695656,470.79303Q107.991264,471.09055,108.28305,471.3822L108.28197,471.3822Q102.51422,480.01324,98.2827,491.80334Q96.22782,499.43744,96.97826,509.09778Q97.13854,516.81805,102.0336,533.8919Q102.62923,537.74945,101.94254,542.5759Q100.68004,550.5683,97.483826,555.547Q95.3537,559.5258,85.7425,567.0961Q84.446205,568.5125,83.802635,571.0305Q82.79602,572.5702,84.1832,589.6738L83.086426,597.7875Q78.04576,620.2526,71.294235,630.6361Q71.159935,631.4593,74.69031,631.82416Q74.84031,640.0377,73.45038,642.6987L76.27809,646.1064Q77.69253,647.79004,85.30365,648.17065L93.528595,648.34656Q97.0237,647.4276,97.03666,646.7628Q98.79238,646.53827,91.80053,638.2842Q90.94858,636.48145,91.04419,634.6569Q92.800545,613.801,98.66653,598.49615Q106.25807,585.32794,109.49671,582.65735L109.49561,582.65735Q109.488716,582.6581,109.48274,582.6581Q108.54619,582.6581,130.35022,565.5449L130.35153,565.5449Q126.67479,571.61914,127.0905,576.23553Q133.47127,590.9303,135.18324,631.48004Q135.3855,631.9827,136.1735,632.10156Q137.42026,631.6567,138.19127,631.6567Q139.05997,631.6567,139.32472,632.22144Q143.9783,637.9821,142.43419,639.6201Q142.43361,639.97504,143.77882,639.97504Q144.08318,639.97504,144.4564,639.95685L144.45786,639.95685Q143.84123,641.4766,146.07939,642.29175Q150.10268,643.3044,153.88393,643.3044Q159.58298,643.3044,164.7322,641.0041Q153.20114,633.45667,150.32327,623.8594Q148.79419,621.24854,149.30038,607.43884L147.39166,601.859Q147.1919,600.04425,149.29655,594.06866Q153.14058,582.9453,157.93665,579.11676Q167.75677,571.7276,176.22714,562.89136Q181.74142,558.56274,192.61456,556.62695Q194.58867,555.71454,196.70085,550.9718Q222.93962,551.6946,238.15237,554.07776Q242.22588,554.75037,244.40549,555.57996Q246.88438,556.2969,248.94112,558.55664Q253.53989,559.15674,253.99165,560.257Q255.59274,561.66046,257.23004,565.7463Q263.33975,585.6598,271.073,603.16785Q272.84192,608.33813,273.92303,629.0517Q274.2034,628.93994,274.4891,628.93994Q277.5558,628.93994,281.23877,641.8158Q291.0383,644.7753,294.4978,645.3912Q295.50934,645.64386,296.44022,645.64386Q297.65778,645.64386,298.73727,645.21155Q304.08316,642.71606,302.9889,641.24756L292.54364,631.7494Q285.00626,614.3748,284.42023,609.93677Q282.87427,604.24884,285.5842,593.62823Q283.20767,591.4767,283.18042,567.77124Q287.1988,567.0881,287.472,565.7453Q311.41132,587.6702,309.13806,588.6794Q310.49774,590.3688,306.5833,604.9862Q303.21857,609.7375,304.11578,610.5879Q304.03104,610.5687,303.93835,610.5687Q302.1657,610.5687,297.49802,617.5713L298.9359,630.29083Q298.93295,630.90265,299.66675,631.0084Q299.3356,629.99554,317.4209,614.04156Q320.7547,610.59393,321.18875,607.64185Q318.22644,593.67236,323.12854,579.18176Q322.7744,576.9175,321.8039,574.62726Q315.52295,563.92126,313.64255,556.1826L313.6457,556.1826Q318.00812,556.75464,321.49115,556.75464Q326.03494,556.75464,329.08218,555.7811Q335.4669,554.18665,345.9229,543.6267L350.82208,544.26074L352.96643,543.994L354.10962,546.0962Q353.27078,552.6438,354.47186,554.79926Q358.51813,562.8706,360.7381,562.91003Q361.5999,568.6873,363.43323,569.49963Q365.25537,570.654,366.54596,570.654Q366.60434,570.654,366.66162,570.6516Q366.7477,570.65466,366.8338,570.65466Q368.87204,570.65466,370.90533,568.9532Q377.3559,570.4816,381.33582,570.4816Q384.502,570.4816,386.10458,569.5143Q387.4207,568.91925,388.92477,566.4207Q394.34576,553.6898,398.23,547.4693Q400.47968,543.6479,407.02454,535.48444Q413.5799,527.3014,416.0929,525.3866Q417.80862,523.36163,422.93997,523.06683Q424.00946,522.65656,424.83206,521.12195Q426.5577,509.7398,419.78223,502.00415Q420.47223,501.3352,448.0788,495.9811Q452.19943,494.90485,455.83554,490.01425Q455.85397,488.9698,455.29044,488.9698Q455.13834,488.9698,454.94382,489.0459Q449.1866,491.03268,443.61337,491.03268Q442.38916,491.03268,441.1738,490.93683Q432.05597,490.36542,423.12512,488.15924Q427.84814,484.57544,431.4453,482.84436Q447.41278,477.7755,451.67102,474.77228Q458.07852,471.16165,459.6271,466.26776L459.3051,466.01532L449.63373,468.51456Q420.4297,473.05225,417.00952,474.6518Q409.45688,476.72977,402.9835,483.34515Q372.4344,445.57068,359.41318,439.78912L344.26068,431.56226L317.58557,421.09402Q302.9443,416.01227,292.04248,415.7312Q290.6611,415.69287,289.30853,415.69287Q277.3537,415.69287,267.6477,418.68643L248.43925,426.78503L225.70265,434.04614L211.74715,440.928Q207.23917,442.61417,202.19493,443.72736Q166.10916,450.64984,140.17914,450.64984Q138.00285,450.64984,135.8981,450.60107Q132.47067,450.94427,128.50586,452.85974Q123.53486,455.33728,119.153915,459.0282L119.153915,459.0282Q109.328224,454.55463,104.00523,450.9818Q94.569046,444.9261,90.78801,438.89148Q87.377396,433.7995,88.313034,425.9235Q89.45606,418.33493,90.29301,415.5591Q90.96019,412.59445,95.02875,401.1167Q95.78045,398.49576,95.65059,398.17572Q94.47597,393.10373,90.11634,392.49768L89.98646,392.4957Q89.957954,392.49503,89.92902,392.49503 Z"/> </g> </g> </svg>